<svg version="1.1" id="Layer_1" xmlns="http://www.w3.org/2000/svg" xmlns:xlink="http://www.w3.org/1999/xlink" x="0px" y="0px"
	 width="100%" viewBox="0 0 248 286" enable-background="new 0 0 248 286" xml:space="preserve">
<path fill="#FEFFFE" opacity="1.000000" stroke="none" 
	d="
M132.000000,287.000000 
	C88.000000,287.000000 44.500000,287.000000 1.000000,287.000000 
	C1.000000,191.666672 1.000000,96.333336 1.000000,1.000000 
	C83.666664,1.000000 166.333328,1.000000 249.000000,1.000000 
	C249.000000,96.333336 249.000000,191.666672 249.000000,287.000000 
	C210.166672,287.000000 171.333328,287.000000 132.000000,287.000000 
M166.073853,54.820030 
	C160.240402,44.501991 153.850540,34.623989 143.884277,27.704893 
	C132.522552,19.816988 120.596832,18.445059 108.306290,25.309998 
	C97.681236,31.244663 90.376717,40.392849 83.891151,50.939007 
	C75.350853,49.962040 66.790611,48.026093 58.274326,48.203293 
	C39.237610,48.599388 27.151012,60.477730 24.860552,79.200348 
	C23.192179,92.837921 26.191216,105.737228 31.297106,118.060936 
	C35.664860,128.603043 41.337532,138.604507 46.020657,149.476257 
	C42.516315,155.889084 38.679058,162.145416 35.576351,168.747009 
	C28.944193,182.858124 24.288616,197.506668 25.020864,213.415390 
	C25.809568,230.550659 35.567520,242.130844 52.430233,245.360291 
	C62.786758,247.343750 72.954605,245.742081 83.506432,243.381042 
	C89.092751,250.575455 93.908989,258.576080 100.423630,264.798615 
	C114.547394,278.289093 132.116638,278.734741 146.692383,265.746094 
	C153.498886,259.680695 158.359863,251.432037 164.879211,244.177704 
	C171.943512,245.118500 178.996857,246.761078 186.074112,246.871613 
	C209.545761,247.238205 223.228058,234.091339 223.782944,210.652527 
	C224.220795,192.156677 217.495224,175.501312 209.168564,159.416016 
	C206.351364,153.973801 203.283554,148.661346 200.930161,142.749161 
	C203.194885,138.307709 205.672760,133.960464 207.684570,129.407257 
	C213.853439,115.445847 218.224121,101.085526 217.174988,85.514893 
	C216.066589,69.064980 206.523468,57.406639 190.246826,54.982868 
	C182.522095,53.832569 174.431534,55.138851 166.073853,54.820030 
z"/>
<path fill="#0174D9" opacity="1.000000" stroke="none" 
	d="
M46.433048,148.845093 
	C41.337532,138.604507 35.664860,128.603043 31.297106,118.060936 
	C26.191216,105.737228 23.192179,92.837921 24.860552,79.200348 
	C27.151012,60.477730 39.237610,48.599388 58.274326,48.203293 
	C66.790611,48.026093 75.350853,49.962040 84.605087,51.140015 
	C91.518433,53.704414 97.889198,55.699738 103.888542,58.492870 
	C135.200897,73.071022 160.926544,94.791527 183.132751,121.366180 
	C188.928772,128.884598 194.629517,136.087082 200.330261,143.289581 
	C203.283554,148.661346 206.351364,153.973801 209.168564,159.416016 
	C217.495224,175.501312 224.220795,192.156677 223.782944,210.652527 
	C223.228058,234.091339 209.545761,247.238205 186.074112,246.871613 
	C178.996857,246.761078 171.943512,245.118500 164.142776,244.013885 
	C140.419998,236.597290 119.760872,224.925171 101.644707,209.245926 
	C88.505287,197.873932 76.523552,185.164322 63.963013,172.710541 
	C58.077969,164.528290 52.255508,156.686691 46.433048,148.845093 
z"/>
<path fill="#FDDC02" opacity="1.000000" stroke="none" 
	d="
M64.025597,173.051178 
	C76.523552,185.164322 88.505287,197.873932 101.644707,209.245926 
	C119.760872,224.925171 140.419998,236.597290 163.754501,244.011505 
	C158.359863,251.432037 153.498886,259.680695 146.692383,265.746094 
	C132.116638,278.734741 114.547394,278.289093 100.423630,264.798615 
	C93.908989,258.576080 89.092751,250.575455 83.208054,242.810486 
	C71.731766,220.509811 66.132629,197.257050 64.025597,173.051178 
z"/>
<path fill="#FDDC02" opacity="1.000000" stroke="none" 
	d="
M183.037460,121.050270 
	C160.926544,94.791527 135.200897,73.071022 103.888542,58.492870 
	C97.889198,55.699738 91.518433,53.704414 84.987427,51.135902 
	C90.376717,40.392849 97.681236,31.244663 108.306290,25.309998 
	C120.596832,18.445059 132.522552,19.816988 143.884277,27.704893 
	C153.850540,34.623989 160.240402,44.501991 166.407486,55.422493 
	C174.693390,72.759705 179.817154,90.361000 182.541992,108.648590 
	C183.148148,112.716774 182.894974,116.913002 183.037460,121.050270 
z"/>
<path fill="#409F74" opacity="1.000000" stroke="none" 
	d="
M63.963013,172.710541 
	C66.132629,197.257050 71.731766,220.509811 82.945518,242.590530 
	C72.954605,245.742081 62.786758,247.343750 52.430233,245.360291 
	C35.567520,242.130844 25.809568,230.550659 25.020864,213.415390 
	C24.288616,197.506668 28.944193,182.858124 35.576351,168.747009 
	C38.679058,162.145416 42.516315,155.889084 46.226852,149.160675 
	C52.255508,156.686691 58.077969,164.528290 63.963013,172.710541 
z"/>
<path fill="#409F73" opacity="1.000000" stroke="none" 
	d="
M183.132751,121.366180 
	C182.894974,116.913002 183.148148,112.716774 182.541992,108.648590 
	C179.817154,90.361000 174.693390,72.759705 166.623917,55.678596 
	C174.431534,55.138851 182.522095,53.832569 190.246826,54.982868 
	C206.523468,57.406639 216.066589,69.064980 217.174988,85.514893 
	C218.224121,101.085526 213.853439,115.445847 207.684570,129.407257 
	C205.672760,133.960464 203.194885,138.307709 200.630219,143.019379 
	C194.629517,136.087082 188.928772,128.884598 183.132751,121.366180 
z"/>
</svg>